<?xml version="1.0" encoding="UTF-8"?>
<svg xmlns="http://www.w3.org/2000/svg" version="1.1" viewBox="0 0 16 16">
  <defs>
    <style>
      .cls-1 {
        fill: #23295d;
      }
    </style>
  </defs>
  <!-- Generator: Adobe Illustrator 28.6.0, SVG Export Plug-In . SVG Version: 1.2.0 Build 709)  -->
  <g>
    <g id="Layer_1">
      <path class="cls-1" d="M16,8C16,3.6,12.4,0,8,0S0,3.6,0,8s3.6,8,8,8,8-3.6,8-8M8.5,11.5c0,.3-.2.5-.5.5s-.5-.2-.5-.5v-5.8l-2.1,2.1c-.2.2-.5.2-.7,0s-.2-.5,0-.7l3-3c.2-.2.5-.2.7,0,0,0,0,0,0,0l3,3c.2.2.2.5,0,.7s-.5.2-.7,0l-2.1-2.1v5.8Z"/>
    </g>
  </g>
</svg>