<?xml version="1.0" encoding="UTF-8"?>
<svg id="Layer_2" xmlns="http://www.w3.org/2000/svg" viewBox="0 0 170.18 53.82">
  <defs>
    <style>
      .cls-1 {
        fill: #e9eff8;
      }
    </style>
  </defs>
  <g id="OR">
    <g>
      <g>
        <path class="cls-1" d="M4.5,53.74h17.91s4.47-4.48,4.46-4.48H6.7c-1.23,0-2.22-.99-2.22-2.22V0S0,4.48,0,4.48v44.76c0,2.49,2.01,4.5,4.5,4.5Z"/>
        <path class="cls-1" d="M22.4,0h-13.44v17.91h13.44c4.95,0,8.95-4.01,8.95-8.95h0C31.35,4.01,27.34,0,22.4,0ZM26.87,10.75c0,3.46-2.81,6.27-6.27,6.27h-10.75V4.48h10.75c3.46,0,6.27,2.81,6.27,6.27h0Z"/>
        <path class="cls-1" d="M26.87,22.39H8.96s0,0,0,0v20.15c0,1.24,1,2.24,2.24,2.24h15.68c6.18,0,11.2-5.01,11.2-11.2s-5.01-11.2-11.2-11.2ZM33.61,35.38c0,4.7-3.81,8.51-8.51,8.51h-13.9c-.74,0-1.34-.6-1.34-1.34v-15.67h15.25c4.7,0,8.51,3.81,8.51,8.51h0Z"/>
      </g>
      <path class="cls-1" d="M49.28,22.67c0-.14,0-.19.14-.22.9-.03,3.23-.08,4.98-.08,5.47,0,6.38,2.96,6.38,4.71,0,1.94-1.04,3.06-1.75,3.58,1.04.52,2.63,1.72,2.63,4.24,0,3.45-2.93,5.5-7.3,5.47-2.13,0-3.91-.03-4.9-.05-.14-.03-.16-.11-.16-.22v-17.43ZM52.29,29.62h2c.93,0,1.97.08,2.38.16.6-.49,1.09-1.15,1.09-2.3,0-1.67-1.23-2.49-3.42-2.49-.82,0-1.53.03-2.05.05v4.57ZM52.29,37.72c.57.03,1.2.05,1.97.05,2.49,0,4.21-.85,4.21-2.82,0-1.18-.6-2.11-2.02-2.46-.49-.14-1.12-.19-1.83-.19h-2.33v5.42Z"/>
      <path class="cls-1" d="M66.79,34.24c.05,2.11,1.26,3.67,4,3.67,1.15,0,2.19-.16,3.2-.63.08-.03.14-.03.14.14v2.11c0,.19-.03.25-.14.3-.98.49-2.16.74-3.83.74-4.79,0-6.48-3.39-6.48-6.84,0-3.83,2.19-7.14,6.1-7.14s5.36,3.15,5.36,5.66c0,.77-.05,1.4-.14,1.67,0,.14-.08.19-.22.22-.36.05-1.42.11-2.79.11h-5.2ZM70.73,32c1.04,0,1.37-.03,1.45-.06.03-.08.03-.19.03-.25,0-.85-.55-2.63-2.54-2.63-1.86,0-2.68,1.48-2.87,2.93h3.94Z"/>
      <path class="cls-1" d="M83.83,39.9c0,.14-.05.25-.19.3-.66.27-1.34.36-2.19.36-2.16,0-3.45-1.07-3.45-3.72v-11.25c0-.14.15-.25.3-.39l.89-.89c.92-.92,1.89-1.89,1.89-1.89.06-.06.2-.03.18.13-.08.88-.14,2.92-.14,4.32h2.6c.14,0,.19.05.19.19v2.24c0,.14-.05.16-.19.19h-2.63v6.76c0,1.18.41,1.78,1.53,1.78.33,0,.66-.05,1.01-.14.11-.03.19,0,.19.14v1.89Z"/>
      <path class="cls-1" d="M170.1,39.9c0,.14-.05.25-.19.3-.66.27-1.34.36-2.19.36-2.16,0-3.45-1.07-3.45-3.72v-11.25c0-.14.15-.25.3-.39l.89-.89c.92-.92,1.89-1.89,1.89-1.89.06-.06.2-.03.18.13-.08.88-.14,2.92-.14,4.32h2.6c.14,0,.19.05.19.19v2.24c0,.14-.05.16-.19.19h-2.63v6.76c0,1.18.41,1.78,1.53,1.78.33,0,.66-.05,1.01-.14.11-.03.19,0,.19.14v1.89Z"/>
      <path class="cls-1" d="M96.89,31.89v5.77c0,.6,0,1.09.05,1.64,0,.05,0,.08-.05.11-2.02.88-3.56,1.15-5.36,1.15-2.95,0-5.17-1.45-5.17-4.4s2.57-4.32,5.96-4.32c.74,0,1.31.03,1.59.05v-.44c0-.68-.36-2.16-2.71-2.16-1.29,0-2.43.27-3.39.74-.11.05-.22,0-.22-.14v-2.24c0-.14.05-.19.16-.25,1.07-.52,2.49-.82,3.97-.82,3.61,0,5.17,2.33,5.17,5.31ZM93.91,34.24c-.41-.05-.82-.08-1.45-.08-2.11,0-3.09.74-3.09,2,0,1.01.71,1.97,2.65,1.97.68,0,1.31-.11,1.89-.33v-3.56Z"/>
      <path class="cls-1" d="M100.04,29.97c0-.9-.05-2.38-.11-2.93-.03-.14.03-.19.16-.19h2.3c.19,0,.27.05.33.16.08.25.14.63.16,1.07,1.15-.98,2.43-1.5,3.86-1.5,1.94,0,4.35,1.01,4.35,5.25v8.26c0,.16-.08.22-.22.22h-2.65c-.16,0-.22-.08-.22-.22v-7.99c0-1.75-.74-2.82-2.27-2.82-1.07,0-1.94.44-2.63,1.15v9.66c0,.14-.05.22-.19.22h-2.68c-.14,0-.19-.05-.19-.22v-10.12Z"/>
      <path class="cls-1" d="M123.58,39.96c0,.11-.03.16-.14.22-.82.33-1.83.38-2.85.38-4.27,0-6.73-2.98-6.73-6.92s2.85-7.06,7.17-7.06c1.26,0,1.97.14,2.41.3.11.05.14.14.14.3l-.03,2.3c0,.16-.08.16-.19.14-.55-.22-1.23-.33-2.24-.33-2.41,0-4.1,1.5-4.1,4.21,0,3.12,2.08,4.3,4.16,4.3.93,0,1.7-.08,2.22-.27.14-.03.19.03.19.14v2.3Z"/>
      <path class="cls-1" d="M138.03,33.53c0,4.24-2.52,7.03-6.24,7.03-4.35,0-6.24-3.47-6.24-6.98,0-3.91,2.41-7,6.29-7s6.18,3.06,6.18,6.95ZM128.65,33.53c0,2.6,1.18,4.43,3.23,4.43,1.64,0,3.04-1.45,3.04-4.38,0-2.35-.93-4.38-3.2-4.38-1.78,0-3.06,1.59-3.06,4.32Z"/>
      <path class="cls-1" d="M151.45,37.39c0,1.31.08,2.16.14,2.74.03.14-.03.19-.19.19h-2.35c-.16,0-.22-.03-.27-.16-.08-.25-.14-.68-.16-.96-1.12,1.07-2.44,1.37-3.67,1.37-2.41,0-4.4-1.26-4.4-5.03v-8.48c0-.16.05-.19.22-.19h2.68c.16,0,.19.05.19.19v8.1c0,1.72.74,2.74,2.33,2.74,1.01,0,1.78-.36,2.41-1.01v-9.82c0-.14.08-.19.22-.19h2.68c.16,0,.19.05.19.19v10.34Z"/>
      <path class="cls-1" d="M156.87,26.86c.14,0,.22.05.27.19.11.33.22,1.07.27,1.64.9-1.15,2.43-2.11,4.21-2.11.14,0,.19.05.19.19v2.76c0,.14-.05.16-.22.16-1.83-.05-3.42.66-4.05,1.48v8.95c0,.14-.05.19-.22.19h-2.65c-.16,0-.22-.05-.22-.22v-9.44c0-1.26-.05-2.76-.14-3.64-.03-.14.03-.16.16-.16h2.38Z"/>
      <path class="cls-1" d="M49.49,17.91c-.12,0-.22-.1-.22-.22V2.93c0-.07.03-.14.08-.19L52.03.05c.11-.11.31-.03.31.13v14.94h7.71c.14,0,.19.08.16.19l-.41,2.41c-.03.16-.14.19-.25.19h-10.07Z"/>
      <path class="cls-1" d="M65.17,11.84c.05,2.11,1.26,3.67,3.99,3.67,1.15,0,2.19-.16,3.2-.63.08-.03.14-.03.14.14v2.11c0,.19-.03.25-.14.3-.99.49-2.16.74-3.83.74-4.79,0-6.48-3.39-6.48-6.84,0-3.83,2.19-7.14,6.1-7.14s5.36,3.15,5.36,5.66c0,.77-.06,1.4-.14,1.67,0,.14-.08.19-.22.22-.36.05-1.42.11-2.79.11h-5.2ZM69.11,9.6c1.04,0,1.37-.03,1.45-.06.03-.08.03-.19.03-.25,0-.85-.55-2.63-2.54-2.63-1.86,0-2.68,1.48-2.87,2.93h3.94Z"/>
      <path class="cls-1" d="M88.58,11.13c0,4.24-2.52,7.03-6.24,7.03-4.35,0-6.24-3.47-6.24-6.98,0-3.91,2.41-7,6.29-7s6.18,3.06,6.18,6.95ZM79.2,11.13c0,2.6,1.18,4.43,3.23,4.43,1.64,0,3.04-1.45,3.04-4.38,0-2.35-.93-4.38-3.2-4.38-1.78,0-3.06,1.59-3.06,4.32Z"/>
      <path class="cls-1" d="M91.49,7.57c0-.9-.05-2.38-.11-2.93-.03-.14.03-.19.16-.19h2.3c.19,0,.27.05.33.16.08.25.14.63.16,1.07,1.15-.98,2.43-1.5,3.86-1.5,1.94,0,4.35,1.01,4.35,5.25v8.26c0,.16-.08.22-.22.22h-2.65c-.16,0-.22-.08-.22-.22v-7.99c0-1.75-.74-2.82-2.27-2.82-1.07,0-1.94.44-2.63,1.15v9.66c0,.14-.05.22-.19.22h-2.68c-.14,0-.19-.05-.19-.22V7.57Z"/>
      <path class="cls-1" d="M116.06,9.49v5.77c0,.6,0,1.09.05,1.64,0,.05,0,.08-.05.11-2.02.88-3.56,1.15-5.36,1.15-2.95,0-5.17-1.45-5.17-4.4s2.57-4.32,5.96-4.32c.74,0,1.31.03,1.59.05v-.44c0-.68-.36-2.16-2.71-2.16-1.29,0-2.43.27-3.39.74-.11.05-.22,0-.22-.14v-2.24c0-.14.05-.19.16-.25,1.07-.52,2.49-.82,3.97-.82,3.61,0,5.17,2.33,5.17,5.31ZM113.07,11.84c-.41-.05-.82-.08-1.45-.08-2.11,0-3.09.74-3.09,2,0,1.01.71,1.97,2.65,1.97.68,0,1.31-.11,1.89-.33v-3.56Z"/>
      <path class="cls-1" d="M121.64,4.45c.14,0,.22.05.27.19.11.33.22,1.07.27,1.64.9-1.15,2.44-2.11,4.21-2.11.14,0,.19.05.19.19v2.76c0,.14-.05.16-.22.16-1.83-.05-3.42.66-4.05,1.48v8.95c0,.14-.05.19-.22.19h-2.65c-.17,0-.22-.05-.22-.22v-9.44c0-1.26-.05-2.76-.14-3.64-.03-.14.03-.16.16-.16h2.38Z"/>
      <path class="cls-1" d="M128.3,11.29c0-3.97,2.85-7.11,7.41-7.11.44,0,.71.03,1.15.08V.16c0-.11.05-.16.16-.16h2.76c.14,0,.16.05.16.14v15.1c0,.52,0,1.15.08,1.7,0,.11-.03.16-.16.22-1.64.74-3.28,1.01-4.82,1.01-3.86,0-6.76-2.27-6.76-6.87ZM136.87,6.97c-.33-.11-.77-.16-1.26-.16-2.41,0-4.16,1.64-4.16,4.35,0,3.09,1.75,4.32,3.88,4.32.52,0,1.07-.03,1.53-.22V6.97Z"/>
      <path class="cls-1" d="M155.19,11.13c0,4.24-2.52,7.03-6.24,7.03-4.35,0-6.24-3.47-6.24-6.98,0-3.91,2.41-7,6.29-7s6.18,3.06,6.18,6.95ZM145.8,11.13c0,2.6,1.18,4.43,3.23,4.43,1.64,0,3.04-1.45,3.04-4.38,0-2.35-.93-4.38-3.2-4.38-1.78,0-3.06,1.59-3.06,4.32Z"/>
      <g>
        <path class="cls-1" d="M51.64,49.2c.25,0,.49.02.71.06s.43.11.61.2l-.1.49c-.19-.08-.39-.14-.6-.18-.21-.04-.41-.07-.62-.07-.55,0-.98.16-1.3.48-.32.32-.47.78-.47,1.37s.15,1.01.45,1.31c.3.31.74.46,1.34.46.14,0,.29,0,.43-.03.14-.02.27-.05.37-.08v-1.45h.56v1.8c-.17.07-.38.13-.65.18-.26.05-.52.07-.79.07-.36,0-.69-.05-.98-.16-.29-.11-.53-.26-.73-.46-.2-.2-.35-.44-.46-.71-.1-.28-.16-.58-.16-.92s.05-.67.16-.96c.11-.29.27-.54.47-.75.2-.21.45-.37.75-.49.29-.12.63-.17,1-.17Z"/>
        <path class="cls-1" d="M55.35,53.74h-.61v-4.46h1.15c.24,0,.46.03.67.08.21.05.39.13.54.24s.28.24.37.39c.09.16.13.34.13.55,0,.31-.1.58-.3.8-.2.23-.48.39-.83.5l1.57,1.9h-.75l-1.45-1.79s-.06,0-.1,0c-.04,0-.09,0-.14,0h-.25v1.79ZM56.99,50.55c0-.14-.03-.26-.09-.36-.06-.1-.14-.18-.24-.24-.1-.06-.22-.1-.35-.13-.13-.03-.27-.04-.42-.04h-.53v1.68h.31c.19,0,.36-.02.52-.05.16-.04.3-.09.42-.16s.21-.17.28-.28c.07-.11.1-.25.1-.41Z"/>
        <path class="cls-1" d="M63.19,53.74h-.63l-.41-1.08h-2.07l-.4,1.08h-.63l1.77-4.46h.6l1.77,4.46ZM60.27,52.17h1.71l-.85-2.32-.85,2.32Z"/>
        <path class="cls-1" d="M67.4,50.59c0,.21-.05.41-.14.58s-.22.32-.39.44c-.17.12-.36.21-.59.28-.23.06-.47.1-.73.1h-.31v1.76h-.61v-4.46h1.07c.24,0,.46.03.67.08s.39.14.54.24c.15.11.27.25.36.41.09.16.13.35.13.57ZM66.78,50.58c0-.15-.03-.27-.09-.37s-.14-.18-.24-.25c-.1-.06-.22-.11-.35-.14-.14-.03-.28-.04-.43-.04h-.44v1.71h.33c.18,0,.34-.02.49-.06.15-.04.28-.1.39-.18s.19-.17.25-.28c.06-.11.09-.24.09-.38Z"/>
        <path class="cls-1" d="M71.61,53.74v-2h-2.27v2h-.61v-4.46h.61v1.93h2.27v-1.93h.61v4.46h-.61Z"/>
        <path class="cls-1" d="M74.65,53.74h-.61v-4.46h.61v4.46Z"/>
        <path class="cls-1" d="M78.53,49.2c.2,0,.41.02.63.06.22.04.4.09.55.15l-.1.48c-.15-.05-.31-.1-.49-.13-.17-.03-.34-.05-.51-.05-.56,0-.99.16-1.3.47s-.47.76-.47,1.34.16,1.03.47,1.34.74.47,1.3.47c.17,0,.34-.02.51-.05.17-.03.34-.08.49-.13l.1.47c-.15.06-.33.11-.55.15s-.43.06-.63.06c-.36,0-.69-.06-.98-.17s-.53-.28-.72-.48c-.2-.2-.35-.45-.45-.73s-.16-.59-.16-.92.05-.64.16-.92.25-.52.45-.73c.2-.21.44-.37.72-.48.29-.12.61-.17.98-.17Z"/>
        <path class="cls-1" d="M87.22,51.34c-.05.12-.11.24-.17.36-.06.12-.12.24-.18.36-.06.12-.13.23-.2.33-.07.1-.13.2-.2.28.19.12.38.24.58.36.2.12.39.24.58.35l-.27.44c-.19-.11-.38-.23-.59-.36s-.41-.27-.61-.41c-.21.23-.45.41-.72.56-.27.14-.57.21-.91.21-.4,0-.72-.09-.95-.28-.23-.19-.35-.43-.35-.74,0-.15.03-.29.08-.42.06-.13.13-.24.21-.35.09-.1.18-.2.28-.28.1-.08.2-.16.3-.22-.18-.16-.34-.34-.47-.55-.13-.2-.2-.43-.2-.67,0-.34.11-.62.32-.82.22-.2.52-.3.9-.3.16,0,.3.02.44.07.14.04.25.11.35.19.1.08.18.18.23.29.06.11.08.24.08.38,0,.16-.03.3-.09.44-.06.13-.14.26-.23.37-.09.11-.19.22-.3.31-.11.09-.22.18-.32.25.19.15.38.3.57.44.19.14.42.3.68.46.14-.19.27-.39.37-.59s.21-.44.33-.69l.43.21ZM84.53,53.39c.25,0,.48-.05.69-.16s.39-.26.56-.44c-.23-.14-.46-.3-.7-.47-.24-.17-.45-.33-.62-.49-.08.06-.16.13-.24.19-.08.07-.15.14-.22.22-.06.08-.12.16-.16.25-.04.09-.06.18-.06.29,0,.19.06.34.19.45.13.11.31.16.55.16ZM83.96,50.33c0,.19.05.36.16.51.11.15.23.28.37.41.09-.07.18-.14.27-.21s.18-.16.25-.24c.07-.09.13-.19.18-.29s.07-.22.07-.34c0-.17-.06-.3-.18-.39s-.27-.14-.45-.14c-.21,0-.38.06-.5.18-.12.12-.18.3-.18.52Z"/>
        <path class="cls-1" d="M91.85,53.74h-.61v-4.46h.61v4.46Z"/>
        <path class="cls-1" d="M96.73,53.74l-2.49-3.5v3.5h-.59v-4.46h.59l2.49,3.5v-3.5h.59v4.46h-.59Z"/>
        <path class="cls-1" d="M99.1,49.28h1.23c.38,0,.73.06,1.04.17.31.11.58.27.8.47.22.2.39.43.51.71.12.27.18.57.18.89s-.06.62-.18.89-.29.51-.51.71-.49.35-.8.47c-.31.11-.66.17-1.04.17h-1.23v-4.46ZM100.34,53.25c.27,0,.52-.04.75-.12s.44-.19.61-.34c.17-.15.31-.33.41-.54s.15-.46.15-.74-.05-.52-.15-.73c-.1-.22-.24-.4-.41-.55-.17-.15-.38-.26-.61-.34s-.48-.12-.75-.12h-.62v3.47h.62Z"/>
        <path class="cls-1" d="M107.21,49.28h.61v2.88c0,.23-.04.45-.11.65-.08.2-.19.38-.33.53s-.33.27-.54.35c-.22.08-.47.13-.75.13s-.53-.04-.75-.13c-.22-.08-.4-.2-.54-.35-.15-.15-.26-.33-.33-.53-.08-.2-.11-.42-.11-.65v-2.88h.61v2.91c0,.33.09.61.28.82.19.21.47.31.84.31s.65-.1.84-.31c.19-.21.28-.48.28-.82v-2.91Z"/>
        <path class="cls-1" d="M112.14,52.58c0,.19-.04.36-.12.52-.08.15-.19.28-.33.39-.14.11-.3.19-.49.25-.19.06-.39.09-.61.09s-.43-.02-.66-.07c-.22-.04-.43-.11-.62-.2l.12-.49c.16.08.35.14.54.19.2.05.4.07.6.07.29,0,.52-.06.7-.18.18-.12.27-.3.27-.53,0-.13-.03-.24-.08-.33-.05-.09-.12-.17-.21-.25s-.19-.14-.31-.2c-.12-.06-.24-.12-.38-.18-.15-.07-.3-.15-.44-.22s-.26-.17-.37-.27c-.11-.1-.19-.21-.26-.34-.06-.13-.1-.28-.1-.45,0-.19.03-.36.1-.51.07-.15.17-.27.29-.37s.27-.17.45-.22c.17-.05.36-.07.57-.07s.42.02.62.07c.2.05.38.11.53.19l-.11.49c-.14-.08-.3-.14-.49-.19-.18-.05-.37-.07-.55-.07-.54,0-.81.21-.81.63,0,.09.01.18.04.24.03.07.07.13.13.19.06.06.14.12.24.17.1.06.22.12.36.19s.29.15.45.23.31.18.44.29c.13.11.24.25.33.4s.13.33.13.53Z"/>
        <path class="cls-1" d="M116.48,49.28v.5h-1.31v3.96h-.61v-3.96h-1.31v-.5h3.23Z"/>
        <path class="cls-1" d="M118.49,53.74h-.61v-4.46h1.15c.24,0,.46.03.67.08.21.05.39.13.54.24s.28.24.37.39c.09.16.13.34.13.55,0,.31-.1.58-.3.8-.2.23-.48.39-.83.5l1.57,1.9h-.75l-1.45-1.79s-.06,0-.1,0c-.04,0-.09,0-.14,0h-.25v1.79ZM120.13,50.55c0-.14-.03-.26-.09-.36-.06-.1-.14-.18-.24-.24-.1-.06-.22-.1-.35-.13-.13-.03-.27-.04-.42-.04h-.53v1.68h.31c.19,0,.36-.02.52-.05.16-.04.3-.09.42-.16s.21-.17.28-.28c.07-.11.1-.25.1-.41Z"/>
        <path class="cls-1" d="M123.13,53.74h-.61v-4.46h.61v4.46Z"/>
        <path class="cls-1" d="M128.73,53.74h-.63l-.41-1.08h-2.07l-.4,1.08h-.63l1.77-4.46h.6l1.77,4.46ZM125.81,52.17h1.71l-.85-2.32-.85,2.32Z"/>
        <path class="cls-1" d="M130.78,49.28v3.96h1.85v.5h-2.47v-4.46h.61Z"/>
        <path class="cls-1" d="M136.18,49.28h1.23c.38,0,.73.06,1.04.17.31.11.58.27.8.47.22.2.39.43.51.71.12.27.18.57.18.89s-.06.62-.18.89-.29.51-.51.71-.49.35-.8.47c-.31.11-.66.17-1.04.17h-1.23v-4.46ZM137.41,53.25c.27,0,.52-.04.75-.12s.44-.19.61-.34c.17-.15.31-.33.41-.54s.15-.46.15-.74-.05-.52-.15-.73c-.1-.22-.24-.4-.41-.55-.17-.15-.38-.26-.61-.34s-.48-.12-.75-.12h-.62v3.47h.62Z"/>
        <path class="cls-1" d="M141.45,49.28h2.48v.5h-1.86v1.43h1.78v.5h-1.78v1.53h1.88v.5h-2.5v-4.46Z"/>
        <path class="cls-1" d="M148.13,52.58c0,.19-.04.36-.12.52-.08.15-.19.28-.33.39-.14.11-.3.19-.49.25-.19.06-.39.09-.61.09s-.43-.02-.66-.07c-.22-.04-.43-.11-.62-.2l.12-.49c.16.08.35.14.54.19.2.05.4.07.6.07.29,0,.52-.06.7-.18.18-.12.27-.3.27-.53,0-.13-.03-.24-.08-.33-.05-.09-.12-.17-.21-.25s-.19-.14-.31-.2c-.12-.06-.24-.12-.38-.18-.15-.07-.3-.15-.44-.22s-.26-.17-.37-.27c-.11-.1-.19-.21-.26-.34-.06-.13-.1-.28-.1-.45,0-.19.03-.36.1-.51.07-.15.17-.27.29-.37s.27-.17.45-.22c.17-.05.36-.07.57-.07s.42.02.62.07c.2.05.38.11.53.19l-.11.49c-.14-.08-.3-.14-.49-.19-.18-.05-.37-.07-.55-.07-.54,0-.81.21-.81.63,0,.09.01.18.04.24.03.07.07.13.13.19.06.06.14.12.24.17.1.06.22.12.36.19s.29.15.45.23.31.18.44.29c.13.11.24.25.33.4s.13.33.13.53Z"/>
        <path class="cls-1" d="M150.27,53.74h-.61v-4.46h.61v4.46Z"/>
        <path class="cls-1" d="M154.22,49.2c.25,0,.49.02.71.06s.43.11.61.2l-.1.49c-.19-.08-.39-.14-.6-.18-.21-.04-.41-.07-.62-.07-.55,0-.98.16-1.3.48-.32.32-.47.78-.47,1.37s.15,1.01.45,1.31c.3.31.74.46,1.34.46.14,0,.29,0,.43-.03.14-.02.27-.05.37-.08v-1.45h.56v1.8c-.17.07-.38.13-.65.18-.26.05-.52.07-.79.07-.36,0-.69-.05-.98-.16-.29-.11-.53-.26-.73-.46-.2-.2-.35-.44-.46-.71-.1-.28-.16-.58-.16-.92s.05-.67.16-.96c.11-.29.27-.54.47-.75.2-.21.45-.37.75-.49.29-.12.63-.17,1-.17Z"/>
        <path class="cls-1" d="M160.39,53.74l-2.49-3.5v3.5h-.59v-4.46h.59l2.49,3.5v-3.5h.59v4.46h-.59Z"/>
        <path class="cls-1" d="M162.76,49.28h2.48v.5h-1.86v1.43h1.78v.5h-1.78v1.53h1.88v.5h-2.5v-4.46Z"/>
        <path class="cls-1" d="M167.49,53.74h-.61v-4.46h1.15c.24,0,.46.03.67.08.21.05.39.13.54.24s.28.24.37.39c.09.16.13.34.13.55,0,.31-.1.58-.3.8-.2.23-.48.39-.83.5l1.57,1.9h-.75l-1.45-1.79s-.06,0-.1,0c-.04,0-.09,0-.14,0h-.25v1.79ZM169.13,50.55c0-.14-.03-.26-.09-.36-.06-.1-.14-.18-.24-.24-.1-.06-.22-.1-.35-.13-.13-.03-.27-.04-.42-.04h-.53v1.68h.31c.19,0,.36-.02.52-.05.16-.04.3-.09.42-.16s.21-.17.28-.28c.07-.11.1-.25.1-.41Z"/>
      </g>
    </g>
  </g>
</svg>