<?xml version="1.0" encoding="UTF-8"?>
<svg id="Layer_2" xmlns="http://www.w3.org/2000/svg" viewBox="0 0 42.13 42.13">
  <defs>
    <style>
      .cls-1 {
        fill: #e9eff8;
      }

      .cls-2 {
        fill: #23295d;
      }
    </style>
  </defs>
  <g id="Layer_1-2" data-name="Layer_1">
    <g>
      <circle class="cls-2" cx="21.07" cy="21.07" r="21.07"/>
      <path class="cls-1" d="M33.46,27.43l-1.13,4.89c-.16.69-.77,1.18-1.48,1.18-12.25,0-22.21-9.96-22.21-22.21,0-.71.48-1.32,1.18-1.48l4.89-1.13c.71-.17,1.44.2,1.74.88l2.26,5.27c.26.62.09,1.34-.44,1.77l-2.61,2.1c1.65,3.36,4.38,6.09,7.74,7.74l2.14-2.61c.42-.52,1.15-.7,1.77-.44l5.27,2.26c.63.33,1.05,1.07.88,1.78Z"/>
    </g>
  </g>
</svg>