<?xml version="1.0" encoding="UTF-8"?>
<svg id="Layer_2" xmlns="http://www.w3.org/2000/svg" viewBox="0 0 42.13 42.13">
  <defs>
    <style>
      .cls-1 {
        fill: #e9eff8;
      }

      .cls-2 {
        fill: #23295d;
      }
    </style>
  </defs>
  <g id="Layer_1-2" data-name="Layer_1">
    <g>
      <circle class="cls-2" cx="21.07" cy="21.07" r="21.07"/>
      <path class="cls-1" d="M21.07,26.02c-.85,0-1.7-.28-2.43-.85l-10.77-8.37v11.69c0,1.37,1.11,2.47,2.47,2.47h21.45c1.37,0,2.47-1.11,2.47-2.47v-11.69l-10.76,8.38c-.73.56-1.58.84-2.43.84ZM8.71,15.36l10.94,8.51c.83.65,2,.65,2.84,0l10.94-8.51c.48-.41.84-1.05.84-1.72,0-1.37-1.11-2.47-2.47-2.47H10.34c-1.37,0-2.47,1.11-2.47,2.47,0,.67.31,1.3.84,1.72Z"/>
    </g>
  </g>
</svg>